<?xml version="1.0" encoding="UTF-8"?>
<!DOCTYPE svg PUBLIC "-//W3C//DTD SVG 1.1//EN" "http://www.w3.org/Graphics/SVG/1.1/DTD/svg11.dtd">
<!-- Creator: CorelDRAW -->
<svg xmlns="http://www.w3.org/2000/svg" xml:space="preserve" width="6.72in" height="6.72in" style="shape-rendering:geometricPrecision; text-rendering:geometricPrecision; image-rendering:optimizeQuality; fill-rule:evenodd; clip-rule:evenodd"
viewBox="0 0 6.72 6.72"
 xmlns:xlink="http://www.w3.org/1999/xlink">
 <defs>
  <style type="text/css">
   <![CDATA[
    .fil1 {fill:white;fill-rule:nonzero}
    .fil0 {fill:url(#id0)}
   ]]>
  </style>
  <linearGradient id="id0" gradientUnits="userSpaceOnUse" x1="1.38953" y1="-0.0529488" x2="5.33047" y2="6.77295">
   <stop offset="0" style="stop-color:#444FF5"/>
   <stop offset="0.490196" style="stop-color:#21BFDB"/>
   <stop offset="1" style="stop-color:#1DABB6"/>
  </linearGradient>
 </defs>
 <g id="Layer_x0020_1">
  <metadata id="CorelCorpID_0Corel-Layer"/>
  <path class="fil0" d="M6.31603 1.65333c0.942567,1.63257 0.383209,3.72013 -1.24937,4.6627 -1.63257,0.942567 -3.72013,0.383209 -4.6627,-1.24937 -0.942567,-1.63257 -0.383209,-3.72013 1.24937,-4.6627 1.63257,-0.942567 3.72013,-0.383209 4.6627,1.24937z"/>
  <path class="fil1" d="M3.36 1.84756c0.507972,0 0.967862,0.205906 1.30076,0.538799 0.332894,0.332894 0.538795,0.792783 0.538795,1.30076 0,0.507969 -0.205902,0.967862 -0.538795,1.30076 -0.332894,0.33289 -0.792783,0.538795 -1.30076,0.538795 -0.507972,0 -0.967862,-0.205906 -1.30076,-0.538795 -0.332894,-0.332894 -0.538795,-0.792787 -0.538795,-1.30076 0,-0.244354 0.047748,-0.477717 0.134429,-0.691268 0.0899173,-0.221512 0.221898,-0.421654 0.386051,-0.590535l-0.000129921 -0.000129921c0.026063,-0.026811 0.0689291,-0.0274213 0.0957441,-0.00135827 0.00466929,0.00453937 0.00854331,0.00958661 0.011622,0.0149764l0.497555 0.784091 0.546024 -0.890614 -7.48031e-005 -4.33071e-005 0.00026378 -0.000433071 -6.29921e-005 -4.33071e-005c0.000437008,-0.000716535 0.000893701,-0.00141732 0.00135039,-0.00211024 0.0294409,-0.0492441 0.0524882,-0.10235 0.068,-0.158189 0.0152598,-0.054937 0.0234252,-0.113323 0.0234252,-0.174146 0,-0.0125079 -0.000149606,-0.0218583 -0.000429134,-0.0282677 -0.000291339,-0.00659449 -0.000968504,-0.0160079 -0.00199213,-0.0279606l-3.54331e-005 3.93701e-006c-0.00319291,-0.0372559 0.0244213,-0.0700551 0.0616772,-0.073248 0.00359843,-0.000307087 0.00715748,-0.000330709 0.0106535,-7.87402e-005l0 -0.000188976c0.00184646,-7.87402e-006 0.00366929,5.90551e-005 0.00548031,0.000192913l0 -0.000204724zm1.20501 0.634543c-0.295217,-0.295217 -0.698256,-0.482594 -1.14498,-0.498063 -0.000598425,0.0699252 -0.0105551,0.138138 -0.028685,0.20339 -0.0190157,0.0684409 -0.0468465,0.132823 -0.0821378,0.191811 -0.000598425,0.00111024 -0.00122835,0.00220866 -0.00189764,0.00329921l-0.000137795 -8.66142e-005 -0.600433 0.979354c-0.0053189,0.0102756 -0.0133425,0.0193228 -0.0238189,0.0259685 -0.0315709,0.0200315 -0.0734134,0.0106811 -0.0934449,-0.0208898l0.0571693 -0.0362795 -0.0571299 0.0362362 -0.510248 -0.804098c-0.124933,0.142193 -0.226606,0.305476 -0.299024,0.483886 -0.0802008,0.197583 -0.124382,0.413787 -0.124382,0.640484 0,0.470587 0.190744,0.896626 0.499126,1.20501 0.308382,0.308386 0.734421,0.499126 1.20501,0.499126 0.470591,0 0.89663,-0.19074 1.20501,-0.499126 0.308382,-0.308382 0.499126,-0.734421 0.499126,-1.20501 0,-0.470591 -0.190744,-0.89663 -0.499126,-1.20501z"/>
  <path class="fil1" d="M3.36 1.84756c0.258173,0 0.504024,0.0532756 0.72715,0.149421 0.231555,0.0997874 0.438657,0.245933 0.609661,0.426787l0.00011811 -0.000106299c0.025689,0.0271732 0.0244843,0.0700236 -0.00268898,0.0957126l-0.00073622 0.000677165c-0.170362,0.179248 -0.37628,0.324169 -0.60635,0.423311 -0.22313,0.0961457 -0.46898,0.149421 -0.727154,0.149421 -0.0856102,0 -0.170606,-0.00601969 -0.254547,-0.0176496 -0.0850039,-0.0117795 -0.167992,-0.0293228 -0.248547,-0.0521929l0.018252 -0.065063 -0.0184961 0.0651339c-0.0359685,-0.0102126 -0.0568504,-0.0476575 -0.0466378,-0.083626 0.00220472,-0.00776772 0.0056811,-0.0148268 0.0101378,-0.0210276l0.371583 -0.606083 -7.48031e-005 -4.33071e-005 0.00026378 -0.000433071 -6.29921e-005 -4.33071e-005c0.000437008,-0.000716535 0.000893701,-0.00141732 0.00135039,-0.00211024 0.0294409,-0.0492441 0.0524882,-0.10235 0.068,-0.158189 0.0152598,-0.054937 0.0234252,-0.113323 0.0234252,-0.174146 0,-0.0125079 -0.000149606,-0.0218583 -0.000429134,-0.0282677 -0.000291339,-0.00659449 -0.000968504,-0.0160079 -0.00199213,-0.0279606l-3.54331e-005 3.93701e-006c-0.00319291,-0.0372559 0.0244213,-0.0700551 0.0616772,-0.073248 0.00359843,-0.000307087 0.00715354,-0.000330709 0.0106496,-7.87402e-005l0 -0.000188976c0.00184646,-7.87402e-006 0.00367323,5.90551e-005 0.00548425,0.000192913l0 -0.000204724zm0.67372 0.273728c-0.189197,-0.0815276 -0.396228,-0.129744 -0.613689,-0.137264 -0.000598425,0.0699331 -0.0105551,0.138146 -0.028685,0.203406 -0.0190157,0.0684409 -0.0468465,0.132823 -0.0821378,0.191811 -0.000598425,0.00111024 -0.00122835,0.00220866 -0.00189764,0.00329921l-0.000137795 -8.66142e-005 -0.326567 0.53265c0.0471417,0.0107283 0.0949606,0.0194921 0.143362,0.0262008 0.0763937,0.0105866 0.155181,0.016063 0.236031,0.016063 0.239413,0 0.467189,-0.049311 0.673728,-0.138311 0.194622,-0.0838661 0.370413,-0.202839 0.519354,-0.348882 -0.148941,-0.146043 -0.324732,-0.265016 -0.519362,-0.348886zm-1.93558 0.469902c-0.0139685,-0.0131417 -0.0258346,-0.0245709 -0.0356417,-0.0343268 -0.0137362,-0.0136693 -0.0268583,-0.0271142 -0.039311,-0.0402913l-0.00011811 0.000110236c-0.025685,-0.0271732 -0.0244764,-0.0700315 0.00269685,-0.0957126l0.00073622 -0.000677165 0.00561417 -0.0058622c0.00261024,-0.00272047 0.00557087,-0.00577953 0.00880709,-0.00911417l-0.000133858 -0.000129921c0.0260591,-0.026815 0.0689291,-0.0274291 0.0957441,-0.00137008 0.00467323,0.00453543 0.00854331,0.00958661 0.011622,0.0149724l0.0582126 0.0917323 4.72441e-005 -2.75591e-005c0.0200315,0.0315709 0.0106811,0.0734134 -0.0208937,0.0934449 -0.0286654,0.018189 -0.0657953,0.0121496 -0.0873819,-0.012748z"/>
  <path class="fil1" d="M3.36 5.39125c0.239413,0 0.467189,-0.049311 0.67372,-0.138311 0.19463,-0.0838701 0.370421,-0.202843 0.519362,-0.348886 -0.148941,-0.146043 -0.324732,-0.265016 -0.519354,-0.348878 -0.206539,-0.0890039 -0.434315,-0.138315 -0.673728,-0.138315 -0.239413,0 -0.467189,0.049311 -0.673728,0.138315 -0.194622,0.0838622 -0.370413,0.202835 -0.519354,0.348878 0.148941,0.146043 0.324732,0.265016 0.519362,0.348886 0.206531,0.089 0.434307,0.138311 0.67372,0.138311zm0.72715 -0.0140039c-0.223126,0.0961496 -0.468976,0.149421 -0.72715,0.149421 -0.258173,0 -0.504024,-0.0532717 -0.72715,-0.149421 -0.230067,-0.0991417 -0.435992,-0.244063 -0.606354,-0.423315l-0.00073622 -0.000673228c-0.0271732,-0.025689 -0.028378,-0.0685433 -0.00268898,-0.0957165l0.00011811 0.000110236c0.171,-0.180854 0.378094,-0.327004 0.609657,-0.426787 0.22313,-0.0961457 0.46898,-0.149421 0.727154,-0.149421 0.258173,0 0.504024,0.0532756 0.727154,0.149421 0.230071,0.0991417 0.435988,0.244067 0.60635,0.423311l0.00073622 0.000677165c0.0271732,0.025689 0.028378,0.0685433 0.00268898,0.0957165l-0.00011811 -0.000110236c-0.171004,0.180854 -0.378106,0.327 -0.609661,0.426787z"/>
  <path class="fil1" d="M3.36 1.84756c0.196965,0 0.368154,0.216012 0.485701,0.565252 0.110205,0.327433 0.178374,0.778071 0.178374,1.2743 0,0.496228 -0.0681693,0.94687 -0.178374,1.2743 -0.117547,0.34924 -0.288736,0.565252 -0.485701,0.565252 -0.196965,0 -0.368154,-0.216012 -0.485701,-0.565252 -0.110205,-0.327429 -0.178374,-0.778071 -0.178374,-1.2743 0,-0.104764 0.00317717,-0.209094 0.00925591,-0.312091 0.00620866,-0.105154 0.015315,-0.206004 0.0270394,-0.301783l0.0671811 0.00820079 -0.0672047 -0.00822835c0.00142913,-0.0116811 0.00575197,-0.0223031 0.0121693,-0.0312362l0.447378 -0.729701 -7.48031e-005 -4.33071e-005 0.00026378 -0.000433071 -6.29921e-005 -4.33071e-005c0.000437008,-0.000716535 0.000893701,-0.00141732 0.00135039,-0.00211024 0.0294409,-0.0492441 0.0524882,-0.10235 0.068,-0.158189 0.0152598,-0.054937 0.0234252,-0.113323 0.0234252,-0.174146 0,-0.0124488 -0.000149606,-0.0217559 -0.000425197,-0.0280866 -0.000287402,-0.00656299 -0.000956693,-0.0159134 -0.00196457,-0.0278189l-3.54331e-005 3.93701e-006c-0.00317717,-0.0372598 0.0244528,-0.0700433 0.0617126,-0.0732165 0.00240157,-0.000204724 0.00478346,-0.000279528 0.00714173,-0.000232283 0.00420079,-0.000216535 0.0078937,-0.000401575 0.0089252,-0.000401575zm0.357689 0.608094c-0.0833701,-0.247693 -0.18739,-0.415228 -0.297835,-0.460402 -0.00151181,0.0660079 -0.0113504,0.130417 -0.0285079,0.192177 -0.0190157,0.0684409 -0.0468465,0.132823 -0.0821378,0.191811 -0.000598425,0.00111024 -0.00122835,0.00220866 -0.00189764,0.00329921l-0.000137795 -8.66142e-005 -0.442315 0.721449c-0.0108425,0.090937 -0.019189,0.184217 -0.0247874,0.279059 -0.00573622,0.0971378 -0.00872835,0.198732 -0.00872835,0.304154 0,0.482327 0.0653386,0.917614 0.170969,1.23146 0.0982953,0.292039 0.225295,0.472677 0.357689,0.472677 0.132394,0 0.259394,-0.180638 0.357689,-0.472677 0.10563,-0.313843 0.170969,-0.74913 0.170969,-1.23146 0,-0.482331 -0.0653386,-0.917614 -0.170969,-1.23146z"/>
  <path class="fil1" d="M2.58792 3.36433c-0.0420118,-0.0660827 -0.0907638,-0.137854 -0.145307,-0.218146 -0.241961,-0.356209 -0.590512,-0.869331 -0.590512,-1.16888 0,-0.216484 0.087752,-0.41248 0.229622,-0.554354 0.141874,-0.14187 0.337874,-0.229626 0.554358,-0.229626 0.21648,0 0.41248,0.0877559 0.55435,0.229626 0.141874,0.141874 0.22963,0.33787 0.22963,0.554354 0,0.29339 -0.339358,0.810811 -0.573461,1.16776 -0.0566693,0.0864094 -0.107126,0.163339 -0.142299,0.220709l-0.0576575 -0.0351772 0.0577205 0.0353898c-0.0195433,0.0318819 -0.0612362,0.041878 -0.0931142,0.0223346 -0.0100197,-0.00614173 -0.0178701,-0.0144724 -0.0233307,-0.0239961zm-0.0336929 -0.293791c0.0330512,0.0486575 0.0641614,0.0944606 0.0913701,0.135122 0.0268701,-0.0417362 0.0563583,-0.0867008 0.0878071,-0.13465 0.225031,-0.343122 0.55124,-0.8405 0.55124,-1.0937 0,-0.179098 -0.0725945,-0.341248 -0.189957,-0.45861 -0.117362,-0.117358 -0.279508,-0.189953 -0.458606,-0.189953 -0.179102,0 -0.341248,0.0725945 -0.45861,0.189953 -0.117362,0.117362 -0.189957,0.279512 -0.189957,0.45861 0,0.258949 0.334504,0.751386 0.566713,1.09323zm0.0818543 -1.51002c0.0838622,0 0.159799,0.034 0.214764,0.0889606 0.0549606,0.0549646 0.0889606,0.130902 0.0889606,0.214764 0,0.0838622 -0.034,0.159799 -0.0889606,0.214764 -0.0549646,0.0549606 -0.130902,0.0889606 -0.214764,0.0889606 -0.0838661,0 -0.159803,-0.034 -0.214764,-0.0889606 -0.0549646,-0.0549646 -0.0889646,-0.130902 -0.0889646,-0.214764 0,-0.0838622 0.034,-0.159799 0.0889646,-0.214764 0.0549606,-0.0549606 0.130898,-0.0889606 0.214764,-0.0889606zm0.119016 0.184705c-0.0304488,-0.0304488 -0.0725354,-0.0492913 -0.119016,-0.0492913 -0.0464843,0 -0.0885709,0.0188425 -0.11902,0.0492913 -0.0304528,0.0304528 -0.0492913,0.0725394 -0.0492913,0.11902 0,0.0464803 0.0188386,0.0885669 0.0492913,0.119016 0.0304488,0.0304528 0.0725354,0.0492953 0.11902,0.0492953 0.0464803,0 0.0885669,-0.0188425 0.119016,-0.0492953 0.0304528,-0.0304488 0.0492953,-0.0725354 0.0492953,-0.119016 0,-0.0464803 -0.0188425,-0.0885669 -0.0492953,-0.11902z"/>
 </g>
</svg>
